<?xml version="1.0" encoding="UTF-8" standalone="no"?>
<!-- Created with Inkscape (http://www.inkscape.org/) -->

<svg
   width="210mm"
   height="297mm"
   viewBox="0 0 210 297"
   version="1.1"
   id="svg1"
   sodipodi:docname="hiveot.svg"
   inkscape:version="1.3.1 (9b9bdc1480, 2023-11-25, custom)"
   xmlns:inkscape="http://www.inkscape.org/namespaces/inkscape"
   xmlns:sodipodi="http://sodipodi.sourceforge.net/DTD/sodipodi-0.dtd"
   xmlns="http://www.w3.org/2000/svg"
   xmlns:svg="http://www.w3.org/2000/svg">
  <sodipodi:namedview
     id="namedview1"
     pagecolor="#ffffff"
     bordercolor="#000000"
     borderopacity="0.25"
     inkscape:showpageshadow="2"
     inkscape:pageopacity="0.0"
     inkscape:pagecheckerboard="0"
     inkscape:deskcolor="#d1d1d1"
     inkscape:document-units="mm"
     inkscape:zoom="1.3959208"
     inkscape:cx="409.40717"
     inkscape:cy="271.86355"
     inkscape:window-width="1910"
     inkscape:window-height="1233"
     inkscape:window-x="2481"
     inkscape:window-y="41"
     inkscape:window-maximized="0"
     inkscape:current-layer="layer1" />
  <defs
     id="defs1">
    <linearGradient
       id="swatch5"
       inkscape:swatch="solid">
      <stop
         style="stop-color:#000000;stop-opacity:1;"
         offset="0"
         id="stop5" />
    </linearGradient>
  </defs>
  <g
     inkscape:label="Layer 1"
     inkscape:groupmode="layer"
     id="layer1">
    <path
       id="path5-1"
       style="mix-blend-mode:lighten;fill:#baf8fd;fill-opacity:1;fill-rule:evenodd;stroke:#a9ae2c;stroke-width:0;stroke-linecap:round;stroke-linejoin:round;stroke-dasharray:none;stroke-opacity:0.986463;opacity:0.68070909"
       d="m 112.74076,98.329465 -6.84661,0.07021 -9.677282,-16.371515 9.339502,-16.566534 19.0168,-0.195015 9.67728,16.371515 -9.33951,16.566532 -7.41598,0.07606"
       sodipodi:nodetypes="cccccccc" />
    <path
       id="path5"
       style="fill:#baf8fd;fill-opacity:1;stroke:#2c5eae;stroke-width:5;stroke-linecap:round;stroke-linejoin:round;stroke-dasharray:none;stroke-opacity:0.986463"
       d="m 108.32191,65.43328 -2.76554,0.02836 -9.677284,-16.371515 9.339504,-16.566534 19.0168,-0.195015 9.67728,16.371515 -9.33951,16.566532 -4.16494,0.04272"
       sodipodi:nodetypes="cccccccc" />
    <path
       id="path5-7"
       style="fill:#baf8fd;fill-opacity:1;stroke:#2c5eae;stroke-width:5;stroke-linecap:round;stroke-linejoin:round;stroke-dasharray:none;stroke-opacity:0.986463"
       d="M 97.816538,79.190652 96.21687,82.028166 77.200077,82.223202 67.52278,65.85169 l 9.339499,-16.566547 19.01679,-0.195031 9.677291,16.371514 -1.83687,3.258287"
       sodipodi:nodetypes="cccccccc" />
    <path
       id="path5-7-4"
       style="fill:#baf8fd;fill-opacity:1;stroke:#2c5eae;stroke-width:5;stroke-linecap:round;stroke-linejoin:round;stroke-dasharray:none;stroke-opacity:0.986463"
       d="m 126.58636,68.672431 -2.01319,-3.40582 9.33951,-16.566528 19.0168,-0.195004 4.9342,8.347435 4.74307,8.024097 -9.33951,16.566525 -19.0168,0.194994 -1.62465,-2.748493"
       sodipodi:nodetypes="ccccccccc" />
    <path
       id="path5-7-5"
       style="fill:#baf8fd;fill-opacity:1;stroke:#2c5eae;stroke-width:5;stroke-linecap:round;stroke-linejoin:round;stroke-dasharray:none;stroke-opacity:0.986463"
       d="m 132.2473,85.174715 1.97863,-3.522046 19.01648,-0.223521 9.7018,16.357003 -9.31468,16.580519 -19.01647,0.22351 -9.7018,-16.357003 1.72768,-3.075349"
       sodipodi:nodetypes="cccccccc" />
    <path
       id="path5-7-2"
       style="fill:#baf8fd;fill-opacity:1;stroke:#2c5eae;stroke-width:5;stroke-linecap:round;stroke-linejoin:round;stroke-dasharray:none;stroke-opacity:0.986463"
       d="m 104.63753,96.273766 1.25663,2.125897 -9.339472,16.566557 -19.016797,0.19504 -9.677314,-16.37151 9.33948,-16.566547 19.016791,-0.195037 2.191814,3.707965"
       sodipodi:nodetypes="cccccccc" />
    <path
       id="path5-7-3"
       style="fill:#baf8fd;fill-opacity:1;stroke:#2c5eae;stroke-width:5;stroke-linecap:round;stroke-linejoin:round;stroke-dasharray:none;stroke-opacity:0.986463"
       d="m 120.74878,98.255548 4.18773,-0.03648 9.65201,16.386426 -9.36505,16.55211 -19.01708,0.16568 -9.652016,-16.38643 9.365066,-16.552105 3.60497,-0.03141"
       sodipodi:nodetypes="cccccccc" />
    <ellipse
       style="fill:#baf8fd;fill-opacity:1;stroke:#2c5eae;stroke-width:1.042;stroke-linecap:butt;stroke-linejoin:round;stroke-dasharray:none;stroke-opacity:0.98823529"
       id="path7"
       cx="115.23367"
       cy="81.840355"
       rx="4.2070026"
       ry="4.0499687" />
  </g>
</svg>
