<?xml version="1.0" encoding="UTF-8" standalone="no"?>
<svg
   version="1.1"
   width="640"
   height="640"
   viewBox="0 0 640 640"
   xml:space="preserve"
   id="svg35"
   sodipodi:docname="FullColor_640x640.svg"
   inkscape:version="1.1.1 (3bf5ae0d25, 2021-09-20)"
   xmlns:inkscape="http://www.inkscape.org/namespaces/inkscape"
   xmlns:sodipodi="http://sodipodi.sourceforge.net/DTD/sodipodi-0.dtd"
   xmlns="http://www.w3.org/2000/svg"
   xmlns:svg="http://www.w3.org/2000/svg"><sodipodi:namedview
   id="namedview37"
   pagecolor="#ffffff"
   bordercolor="#666666"
   borderopacity="1.0"
   inkscape:pageshadow="2"
   inkscape:pageopacity="0.0"
   inkscape:pagecheckerboard="0"
   showgrid="false"
   inkscape:zoom="0.79882812"
   inkscape:cx="-131.44254"
   inkscape:cy="471.94132"
   inkscape:window-width="2560"
   inkscape:window-height="1380"
   inkscape:window-x="1920"
   inkscape:window-y="0"
   inkscape:window-maximized="1"
   inkscape:current-layer="svg35"
   fit-margin-top="0"
   fit-margin-left="0"
   fit-margin-right="0"
   fit-margin-bottom="0" />
<desc
   id="desc2">Created with Fabric.js 3.6.3</desc>
<defs
   id="defs4" />

<g
   transform="matrix(1.969278,0,0,1.969278,326.71592,322.86942)"
   id="logo-logo">
<g
   paint-order="stroke"
   id="g29">
		<g
   transform="scale(0.27347409,-0.27347409)"
   id="g11">
<path
   style="opacity:1;fill:#2c5eae;fill-rule:evenodd;stroke:none;stroke-width:1;stroke-linecap:butt;stroke-linejoin:miter;stroke-miterlimit:10;stroke-dasharray:none;stroke-dashoffset:0"
   paint-order="stroke"
   transform="translate(-2890.185,-8379.7333)"
   d="m 2452.62,8681.76 c 0,197.1 144.99,237.22 297.65,139.45 161.69,-103.56 317.05,-203.07 474.82,-304.13 67.68,-43.35 102.66,-90.13 102.66,-137.35 0,-47.2 -34.98,-93.98 -102.66,-137.35 -157.77,-101.06 -313.13,-200.54 -474.82,-304.11 -152.66,-97.8 -297.65,-57.65 -297.65,139.45 v 604.04 0"
   stroke-linecap="round"
   id="path9" />
</g>
		<g
   transform="matrix(0.27347409,0,0,-0.27347409,-0.80944338,-9.9808061e-4)"
   id="g15">
<path
   style="opacity:1;fill:#72cff5;fill-rule:evenodd;stroke:none;stroke-width:1;stroke-linecap:butt;stroke-linejoin:miter;stroke-miterlimit:10;stroke-dasharray:none;stroke-dashoffset:0"
   paint-order="stroke"
   transform="translate(-2887.2238,-8379.7381)"
   d="m 2942.63,8434.62 c 5.67,69.49 -10.8,168.27 -74.29,208.92 l -164.43,105.32 c -92.95,59.5 -165.34,59.98 -165.34,-67.1 v -237.01 c 29.07,34.79 62.67,63.04 95.94,82.52 -0.13,2.1 -0.2,4.23 -0.2,6.36 0,56.85 46.07,102.92 102.89,102.92 56.83,0 102.9,-46.07 102.9,-102.92 0,-56.82 -46.07,-102.89 -102.9,-102.89 -23.36,0 -44.89,7.79 -62.15,20.91 -65.25,-39.41 -136.48,-136.02 -136.48,-213.57 v -160.36 c 0,-127.1 72.39,-126.6 165.34,-67.09 l 164.86,105.58 c -43.36,9.42 -82.52,28.16 -116.96,53.89 -13.38,-6.37 -28.36,-9.95 -44.17,-9.95 -56.83,0 -102.9,46.07 -102.9,102.89 0,56.85 46.07,102.92 102.9,102.92 56.82,0 102.89,-46.07 102.89,-102.92 0,-9.33 -1.25,-18.39 -3.59,-26.97 79.03,-56.76 165.05,-53.74 244.04,-3.14 l 127.74,81.84 c 75.95,48.64 76.47,80.97 0,129.95 l -156.18,100.05 c 8.32,-38.88 9.03,-79.27 5.08,-122.76 28.11,-18.36 46.69,-50.1 46.69,-86.19 0,-56.82 -46.08,-102.89 -102.9,-102.89 -56.82,0 -102.89,46.07 -102.89,102.89 0,46.84 31.29,86.36 74.11,98.8 v 0"
   stroke-linecap="round"
   id="path13" />
</g>
		<g
   transform="matrix(0.27347409,0,0,-0.27347409,-41.833551,-42.090058)"
   id="g19">
<path
   style="opacity:1;fill:#b8e290;fill-rule:evenodd;stroke:none;stroke-width:1;stroke-linecap:butt;stroke-linejoin:miter;stroke-miterlimit:10;stroke-dasharray:none;stroke-dashoffset:0"
   paint-order="stroke"
   transform="translate(-2737.205,-8533.65)"
   d="m 2737.2,8578.55 c -24.8,0 -44.9,-20.11 -44.9,-44.92 0,-24.78 20.1,-44.88 44.9,-44.88 24.8,0 44.91,20.1 44.91,44.88 0,24.81 -20.11,44.92 -44.91,44.92 v 0"
   stroke-linecap="round"
   id="path17" />
</g>
		<g
   transform="matrix(0.27347409,0,0,-0.27347409,22.213282,12.009904)"
   id="g23">
<path
   style="opacity:1;fill:#b8e290;fill-rule:evenodd;stroke:none;stroke-width:1;stroke-linecap:butt;stroke-linejoin:miter;stroke-miterlimit:10;stroke-dasharray:none;stroke-dashoffset:0"
   paint-order="stroke"
   transform="translate(-2971.415,-8335.815)"
   d="m 2971.41,8380.73 c -24.79,0 -44.9,-20.1 -44.9,-44.91 0,-24.81 20.11,-44.92 44.9,-44.92 24.8,0 44.91,20.11 44.91,44.92 0,24.81 -20.11,44.91 -44.91,44.91 v 0"
   stroke-linecap="round"
   id="path21" />
</g>
		<g
   transform="matrix(0.27347409,0,0,-0.27347409,-49.917006,31.906641)"
   id="g27">
<path
   style="opacity:1;fill:#b8e290;fill-rule:evenodd;stroke:none;stroke-width:1;stroke-linecap:butt;stroke-linejoin:miter;stroke-miterlimit:10;stroke-dasharray:none;stroke-dashoffset:0"
   paint-order="stroke"
   transform="translate(-2707.645,-8263.055)"
   d="m 2707.64,8307.95 c -24.8,0 -44.9,-20.1 -44.9,-44.91 0,-24.78 20.1,-44.88 44.9,-44.88 24.8,0 44.91,20.1 44.91,44.88 0,24.81 -20.11,44.91 -44.91,44.91"
   stroke-linecap="round"
   id="path25" />
</g>
</g>
</g>

</svg>
