<?xml version="1.0" encoding="UTF-8" standalone="no"?>
<!-- Created with Inkscape (http://www.inkscape.org/) -->

<svg
   width="105.42128mm"
   height="108.99464mm"
   viewBox="0 0 105.42128 108.99464"
   version="1.1"
   id="svg1"
   sodipodi:docname="hiveot.svg"
   inkscape:version="1.3.1 (9b9bdc1480, 2023-11-25, custom)"
   xmlns:inkscape="http://www.inkscape.org/namespaces/inkscape"
   xmlns:sodipodi="http://sodipodi.sourceforge.net/DTD/sodipodi-0.dtd"
   xmlns="http://www.w3.org/2000/svg"
   xmlns:svg="http://www.w3.org/2000/svg">
  <sodipodi:namedview
     id="namedview1"
     pagecolor="#ffffff"
     bordercolor="#000000"
     borderopacity="0.25"
     inkscape:showpageshadow="2"
     inkscape:pageopacity="0.0"
     inkscape:pagecheckerboard="0"
     inkscape:deskcolor="#d1d1d1"
     inkscape:document-units="mm"
     inkscape:zoom="1.9741301"
     inkscape:cx="251.50318"
     inkscape:cy="218.07073"
     inkscape:window-width="1910"
     inkscape:window-height="1233"
     inkscape:window-x="4662"
     inkscape:window-y="100"
     inkscape:window-maximized="0"
     inkscape:current-layer="layer1" />
  <defs
     id="defs1">
    <linearGradient
       id="swatch5"
       inkscape:swatch="solid">
      <stop
         style="stop-color:#000000;stop-opacity:1;"
         offset="0"
         id="stop5" />
    </linearGradient>
  </defs>
  <g
     inkscape:label="Layer 1"
     inkscape:groupmode="layer"
     id="layer1"
     transform="translate(-56.628774,-85.287572)">
    <path
       id="path5-1"
       style="opacity:0.680709;mix-blend-mode:lighten;fill:#f8f9f4;fill-opacity:1;fill-rule:evenodd;stroke:#a9ae2c;stroke-width:1.5;stroke-linecap:round;stroke-linejoin:round;stroke-dasharray:none;stroke-opacity:0.986463"
       d="m 106.84668,156.28842 -6.84661,0.0702 -9.677285,-16.37151 9.339502,-16.56654 19.016803,-0.19501 9.67728,16.37151 -9.33951,16.56653 -7.41598,0.0761"
       sodipodi:nodetypes="cccccccc" />
    <path
       id="path5"
       style="fill:#baf8fd;fill-opacity:1;stroke:#2c5eae;stroke-width:10;stroke-linecap:butt;stroke-linejoin:round;stroke-dasharray:none;stroke-opacity:0.986463"
       d="m 105.67987,123.35902 -3.25204,0.0332 -2.765543,0.0284 -9.677284,-16.37152 9.339504,-16.566536 19.016803,-0.195015 9.67728,16.371521 -9.33951,16.56653 -4.16494,0.0427 -3.3881,0.0348"
       sodipodi:nodetypes="cccccccccc" />
    <path
       id="path5-7"
       style="fill:#baf8fd;fill-opacity:1;stroke:#2c5eae;stroke-width:10;stroke-linecap:butt;stroke-linejoin:round;stroke-dasharray:none;stroke-opacity:0.986463"
       d="m 93.431931,134.47208 -1.509476,2.67753 -1.599668,2.83751 -19.016793,0.19504 -9.677297,-16.37151 9.339499,-16.56655 19.01679,-0.19503 9.677291,16.37151 -1.83687,3.25829 -1.491953,2.64645"
       sodipodi:nodetypes="cccccccccc" />
    <path
       id="path5-7-4"
       style="fill:#baf8fd;fill-opacity:1;stroke:#2c5eae;stroke-width:10;stroke-linecap:butt;stroke-linejoin:round;stroke-dasharray:none;stroke-opacity:0.986463"
       d="m 122.51562,129.71603 -1.82334,-3.08464 -2.01319,-3.40582 9.33951,-16.56653 19.0168,-0.19501 4.9342,8.34744 4.74307,8.0241 -9.33951,16.56652 -19.0168,0.195 -1.62465,-2.7485 -1.3525,-2.2881"
       sodipodi:nodetypes="ccccccccccc" />
    <path
       id="path5-7-5"
       style="fill:#baf8fd;fill-opacity:1;stroke:#2c5eae;stroke-width:10;stroke-linecap:butt;stroke-linejoin:round;stroke-dasharray:none;stroke-opacity:0.986463"
       d="m 124.99453,145.5522 1.35869,-2.41853 1.97863,-3.52205 19.01648,-0.22352 9.7018,16.35701 -9.31468,16.58052 -19.01647,0.22351 -9.7018,-16.35701 1.72768,-3.07535 1.44687,-2.57548"
       sodipodi:nodetypes="cccccccccc" />
    <path
       id="path5-7-2"
       style="fill:#baf8fd;fill-opacity:1;stroke:#2c5eae;stroke-width:10;stroke-linecap:butt;stroke-linejoin:round;stroke-dasharray:none;stroke-opacity:0.986463"
       d="m 97.153682,151.54325 1.589765,2.68947 1.256633,2.1259 -9.339475,16.56656 -19.016797,0.19504 -9.677314,-16.37151 9.33948,-16.56655 19.016791,-0.19504 2.191814,3.70797 1.433647,2.42536"
       sodipodi:nodetypes="cccccccccc" />
    <path
       id="path5-7-3"
       style="fill:#baf8fd;fill-opacity:1;stroke:#2c5eae;stroke-width:10;stroke-linecap:butt;stroke-linejoin:round;stroke-dasharray:none;stroke-opacity:0.986463"
       d="m 112.17321,156.23786 2.68149,-0.0234 4.18773,-0.0365 9.65201,16.38643 -9.36505,16.55211 -19.01708,0.16568 -9.652019,-16.38643 9.365069,-16.55211 3.60497,-0.0314 2.65768,-0.0231"
       sodipodi:nodetypes="cccccccccc" />
    <path
       sodipodi:type="star"
       style="opacity:0.680709;fill:#f3bf8d;fill-opacity:1;fill-rule:evenodd;stroke:#2c5eae;stroke-width:3.95339;stroke-linecap:butt;stroke-linejoin:round;stroke-dasharray:none;stroke-opacity:0.988235"
       id="path1"
       inkscape:flatsided="true"
       sodipodi:sides="6"
       sodipodi:cx="-129.40501"
       sodipodi:cy="-54.737869"
       sodipodi:r1="19.969839"
       sodipodi:r2="17.29439"
       sodipodi:arg1="0.84450528"
       sodipodi:arg2="1.3681041"
       inkscape:rounded="0"
       inkscape:randomized="0"
       d="m -116.14302,-39.807566 -19.56102,4.020073 -13.26199,-14.930304 6.29902,-18.950376 19.56102,-4.020073 13.262,14.930304 z"
       transform="matrix(0.29823517,-0.31517876,0.33909937,0.27952278,166.49428,114.31408)" />
  </g>
</svg>
